P250 5051156 56 56 56 56 56 56 56 56 56 56 56 56 56 56 56 56 56 56 56 56 56 56 56 56 56 56 56 56 56 7 7 0 56 56 7 7 7 7 7 7 7 7 7 7 7 7 7 7 7 448 448 448 448 448 448 448 448 448 448 448 448 448 448 448 448 448 448 448 448 448 448 448 448 448 448 448 448 56 56 56 0 448 448 448 56 56 56 56 56 56 56 56 56 56 56 56 56 56 56 7 7 7 7 7 7 7 7 7 7 7 7 7 7 7 7 7 7 7 7 7 7 7 7 7 7 455 448 448 448 0 0 7 7 7 455 448 448 448 448 448 448 448 448 448 448 448 448 448 448 56 56 56 56 56 56 56 56 56 56 56 56 56 56 56 56 56 56 56 56 56 56 56 56 56 7 7 7 7 7 0 56 56 56 56 56 7 7 7 7 7 7 7 7 7 7 7 7 7 7 448 448 448 448 448 448 448 448 448 448 448 448 448 448 448 448 448 448 448 448 448 448 448 56 56 56 56 56 56 0 448 448 448 448 448 448 56 56 56 56 56 56 56 56 56 56 56 56 56 56 7 7 7 7 7 7 7 7 7 7 7 7 7 7 7 7 7 7 7 7 7 455 448 448 448 448 448 448 0 0 7 7 7 7 7 7 455 448 448 448 448 448 448 448 448 448 448 448 448 448 56 56 56 56 56 56 56 56 56 56 56 56 56 56 56 56 56 56 56 56 7 7 7 7 7 7 7 7 0 56 56 56 56 56 56 56 56 7 7 7 7 7 7 7 7 7 7 7 7 7 448 448 448 448 448 448 448 448 448 448 448 448 448 448 448 448 448 448 56 56 56 56 56 56 56 56 56 0 448 448 448 448 448 448 448 448 448 56 56 56 56 56 56 56 56 56 56 56 56 56 7 7 7 7 7 7 7 7 7 7 7 7 7 7 7 7 455 448 448 448 448 448 448 448 448 448 0 0 7 7 7 7 7 7 7 7 7 455 448 448 448 448 448 448 448 448 448 448 448 448 56 56 56 56 56 56 56 56 56 56 56 56 56 56 56 7 7 7 7 7 7 7 7 7 7 7 0 56 56 56 56 56 56 56 56 56 56 56 7 7 7 7 7 7 7 7 7 7 7 7 448 448 448 448 448 448 448 448 448 448 448 448 448 56 56 56 56 56 56 56 56 56 56 56 56 0 448 448 448 448 448 448 448 448 448 448 448 448 56 56 56 56 56 56 56 56 56 56 56 56 7 7 7 7 7 7 7 7 7 7 7 455 448 448 448 448 448 448 448 448 448 448 448 448 0 0 7 7 7 7 7 7 7 7 7 7 7 7 455 448 448 448 448 448 448 448 448 448 448 448 56 56 56 56 56 56 56 56 56 56 7 7 7 7 7 7 7 7 7 7 7 7 7 7 0 56 56 56 56 56 56 56 56 56 56 56 56 56 56 7 7 7 7 7 7 7 7 7 7 7 448 448 448 448 448 448 448 448 56 56 56 56 56 56 56 56 56 56 56 56 56 56 56 0 448 448 448 448 448 448 448 448 448 448 448 448 448 448 448 56 56 56 56 56 56 56 56 56 56 56 7 7 7 7 7 7 455 448 448 448 448 448 448 448 448 448 448 448 448 448 448 448 0 0 7 7 7 7 7 7 7 7 7 7 7 7 7 7 7 455 448 448 448 448 448 448 448 448 448 448 56 56 56 56 56 7 7 7 7 7 7 7 7 7 7 7 7 7 7 7 7 7 0 56 56 56 56 56 56 56 56 56 56 56 56 56 56 56 56 56 7 7 7 7 7 7 7 7 7 7 448 448 448 56 56 56 56 56 56 56 56 56 56 56 56 56 56 56 56 56 56 0 448 448 448 448 448 448 448 448 448 448 448 448 448 448 448 448 448 448 56 56 56 56 56 56 56 56 56 56 7 455 448 448 448 448 448 448 448 448 448 448 448 448 448 448 448 448 448 448 0 0 7 7 7 7 7 7 7 7 7 7 7 7 7 7 7 7 7 7 455 448 448 448 448 448 448 448 448 448 7 7 7 7 7 7 7 7 7 7 7 7 7 7 7 7 7 7 7 7 0 56 56 56 56 56 56 56 56 56 56 56 56 56 56 56 56 56 56 56 56 7 7 7 7 7 7 7 7 7 56 56 56 56 56 56 56 56 56 56 56 56 56 56 56 56 56 56 56 0 448 448 448 448 448 448 448 448 448 448 448 448 448 448 448 448 448 448 448 448 448 56 56 56 56 56 56 56 56 56 448 448 448 448 448 448 448 448 448 448 448 448 448 448 448 448 448 448 0 0 7 7 7 7 7 7 7 7 7 7 7 7 7 7 7 7 7 7 7 7 7 455 448 448 448 448 448 448 56 56 7 7 7 7 7 7 7 7 7 7 7 7 7 7 7 7 7 7 0 56 56 56 56 56 56 56 56 56 56 56 56 56 56 56 56 56 56 56 56 56 56 56 7 7 7 7 455 448 448 448 56 56 56 56 56 56 56 56 56 56 56 56 56 56 56 56 56 0 448 448 448 448 448 448 448 448 448 448 448 448 448 448 448 448 448 448 448 448 448 448 448 448 56 56 56 7 7 7 7 7 448 448 448 448 448 448 448 448 448 448 448 448 448 448 448 448 0 0 7 7 7 7 7 7 7 7 7 7 7 7 7 7 7 7 7 7 7 7 7 7 7 7 455 56 56 56 56 56 56 56 7 7 7 7 7 7 7 7 7 7 7 7 7 7 7 7 0 56 56 56 56 56 56 56 56 56 56 56 56 56 56 56 56 56 56 56 56 56 56 56 56 56 504 448 448 448 448 448 448 448 56 56 56 56 56 56 56 56 56 56 56 56 56 56 56 0 448 448 448 448 448 448 448 448 448 448 448 448 448 448 448 448 448 448 448 448 448 448 448 448 448 448 448 7 7 7 7 7 7 7 448 448 448 448 448 448 448 448 448 448 448 448 448 448 0 0 7 7 7 7 7 7 7 7 7 7 7 7 7 7 7 7 7 7 7 7 7 7 7 7 7 7 7 63 56 56 56 56 56 56 7 7 7 7 7 7 7 7 7 7 7 7 7 7 0 56 56 56 56 56 56 56 56 56 56 56 56 56 56 56 56 56 56 56 56 56 56 56 56 56 56 56 56 504 448 448 448 448 448 448 56 56 56 56 56 56 56 56 56 56 56 56 56 0 448 448 448 448 448 448 448 448 448 448 448 448 448 448 448 448 448 448 448 448 448 448 448 448 448 448 448 448 448 448 7 7 7 7 7 7 448 448 448 448 448 448 448 448 448 448 448 448 0 0 7 7 7 7 7 7 7 7 7 7 7 7 7 7 7 7 7 7 7 7 7 7 7 7 7 7 7 7 7 7 63 56 56 56 56 56 7 7 7 7 7 7 7 7 7 7 7 7 0 56 56 56 56 56 56 56 56 56 56 56 56 56 56 56 56 56 56 56 56 56 56 56 56 56 56 56 56 56 56 56 504 448 448 448 448 448 56 56 56 56 56 56 56 56 56 56 56 0 448 448 448 448 448 448 448 448 448 448 448 448 448 448 448 448 448 448 448 448 448 448 448 448 448 448 448 448 448 448 448 448 448 7 7 7 7 7 448 448 448 448 448 448 448 448 448 448 0 0 7 7 7 7 7 7 7 7 7 7 7 7 7 7 7 7 7 7 7 7 7 7 7 7 7 7 7 7 7 7 7 7 7 63 56 56 56 56 7 7 7 7 7 7 7 7 7 7 0 56 56 56 56 56 56 56 56 56 56 56 56 56 56 56 56 56 56 56 56 56 56 56 56 56 56 56 56 56 56 56 56 56 56 504 448 448 448 448 56 56 56 56 56 56 56 56 56 0 448 448 448 448 448 448 448 448 448 448 448 448 448 448 448 448 448 448 448 448 448 448 448 448 448 448 448 448 448 448 448 448 448 448 448 448 7 7 7 7 448 448 448 448 448 448 448 448 0 0 7 7 7 7 7 7 7 7 7 7 7 7 7 7 7 7 7 7 7 7 7 7 7 7 7 7 7 7 7 7 7 7 7 7 7 7 63 56 56 56 7 7 7 7 7 7 7 7 0 56 56 56 56 56 56 56 56 56 56 56 56 56 56 56 56 56 56 56 56 56 56 56 56 56 56 56 56 56 56 56 56 56 56 56 56 56 504 448 448 448 56 56 56 56 56 56 56 0 448 448 448 448 448 448 448 448 448 448 448 448 448 448 448 448 448 448 448 448 448 448 448 448 448 448 448 448 448 448 448 448 448 448 448 448 448 448 448 7 7 7 448 448 448 448 448 448 0 0 7 7 7 7 7 7 7 7 7 7 7 7 7 7 7 7 7 7 7 7 7 7 7 7 7 7 7 7 7 7 7 7 7 7 7 7 7 7 7 63 56 56 7 7 7 7 7 7 0 56 56 56 56 56 56 56 56 56 56 56 56 56 56 56 56 56 56 56 56 56 56 56 56 56 56 56 56 56 56 56 56 56 56 56 56 56 56 56 56 504 448 448 56 56 56 56 56 0 448 448 448 448 448 448 448 448 448 448 448 448 448 448 448 448 448 448 448 448 448 448 448 448 448 448 448 448 448 448 448 448 448 448 448 448 448 448 448 448 448 448 7 7 448 448 448 448 0 0 7 7 7 7 7 7 7 7 7 7 7 7 7 7 7 7 7 7 7 7 7 7 7 7 7 7 7 7 7 7 7 7 7 7 7 7 7 7 7 7 7 7 63 56 7 7 7 7 0 56 56 56 56 56 56 56 56 56 56 56 56 56 56 56 56 56 56 56 56 56 56 56 56 56 56 56 56 56 56 56 56 56 56 56 56 56 56 56 56 56 56 56 504 448 56 56 56 0 448 448 448 448 448 448 448 448 448 448 448 448 448 448 448 448 448 448 448 448 448 448 448 448 448 448 448 448 448 448 448 448 448 448 448 448 448 448 448 448 448 448 448 448 448 7 448 448 0 0 7 7 7 7 7 7 7 7 7 7 7 7 7 7 7 7 7 7 7 7 7 7 7 7 7 7 7 7 7 7 7 7 7 7 7 7 7 7 7 7 7 7 7 7 7 63 7 7 0 56 56 56 56 56 56 56 56 56 56 56 56 56 56 56 56 56 56 56 56 56 56 56 56 56 56 56 56 56 56 56 56 56 56 56 56 56 56 56 56 56 56 56 56 56 56 504 63 0 448 448 448 448 448 448 448 448 448 448 448 448 448 448 448 448 448 448 448 448 448 448 448 448 448 448 448 448 448 448 448 448 448 448 448 448 448 448 448 448 448 448 448 448 448 448 448 448 56 0 7 7 7 7 7 7 7 7 7 7 7 7 7 7 7 7 7 7 7 7 7 7 7 7 7 7 7 7 7 7 7 7 7 7 7 7 7 7 7 7 7 7 7 7 7 7 7 7 0 56 56 56 56 56 56 56 56 56 56 56 56 56 56 56 56 56 56 56 56 56 56 56 56 56 56 56 56 56 56 56 56 56 56 56 56 56 56 56 56 56 56 56 56 56 56 56 56 56 448 448 448 448 448 448 448 448 448 448 448 448 448 448 448 448 448 448 448 448 448 448 448 448 448 448 448 448 448 448 448 448 448 448 448 448 448 448 448 448 448 448 448 448 448 448 448 448 448 448 