P2100 5651184 84 84 84 84 84 84 84 84 84 84 84 84 84 84 84 84 84 156 92 93 93 93 93 93 93 93 84 84 84 84 84 85 84 85 85 84 84 85 85 84 93 93 85 85 84 85 84 85 93 85 93 85 84 85 85 85 157 85 85 93 93 85 85 157 93 85 93 93 93 93 85 93 93 85 85 93 85 93 93 92 92 93 93 92 92 93 92 92 92 85 85 93 85 93 93 157 156 155 73 84 84 84 84 84 84 84 84 84 84 84 84 84 84 84 148 84 156 85 149 85 85 85 85 85 85 85 84 93 85 84 84 93 84 85 85 93 93 85 85 85 85 85 157 84 93 156 156 85 84 157 93 85 157 93 93 93 93 93 93 93 93 157 157 92 157 85 85 85 85 85 85 93 93 85 85 85 93 85 93 93 93 93 93 93 93 93 85 85 85 85 85 93 85 157 148 82 146 145 145 84 84 84 84 148 148 84 84 84 148 84 93 84 93 148 148 148 148 93 93 93 93 93 84 93 157 157 85 85 93 85 93 84 85 92 85 85 85 84 84 93 93 93 157 157 85 292 157 93 157 157 157 157 157 157 157 157 157 157 157 93 93 157 157 157 157 93 93 157 157 157 157 93 93 157 157 157 85 157 85 85 85 85 85 85 85 85 85 157 157 157 157 157 157 93 84 156 1 145 73 85 93 93 93 148 148 84 93 148 148 85 84 93 84 157 157 156 157 157 157 157 157 157 157 157 93 93 93 93 93 93 93 93 93 93 93 93 157 157 157 157 157 157 93 157 85 293 84 93 157 157 157 157 157 157 157 157 157 157 157 93 93 157 157 157 157 93 93 157 157 157 149 93 93 157 93 93 157 157 157 157 157 157 157 157 157 157 157 93 93 93 157 157 157 93 147 146 146 74 0 93 93 93 84 93 93 93 93 93 93 157 93 93 157 157 157 157 157 157 157 93 93 93 93 93 157 157 157 157 157 157 157 157 157 157 157 157 93 157 157 157 157 157 157 93 157 292 219 93 157 157 157 157 157 157 157 157 157 157 157 93 93 93 93 93 93 93 93 93 93 157 157 93 93 157 157 157 157 85 85 157 157 157 157 85 157 85 157 157 157 157 157 93 157 156 155 147 82 144 146 157 93 93 93 93 157 93 157 157 157 93 157 157 157 157 157 85 157 157 157 157 157 157 157 157 157 157 157 157 157 157 157 157 157 157 157 157 157 157 157 157 157 157 157 93 155 365 356 84 157 157 157 157 157 157 157 157 157 157 157 157 157 157 93 157 157 157 157 157 157 93 157 157 93 157 157 157 157 157 157 157 157 157 157 157 157 157 157 157 157 157 156 156 147 145 156 145 81 82 146 157 157 157 157 157 157 157 93 157 157 157 157 157 157 157 157 157 157 157 157 157 157 157 157 157 157 157 157 93 93 93 93 93 93 93 157 157 157 157 157 157 157 157 93 93 230 365 438 84 157 157 157 157 157 157 157 157 157 157 157 157 157 157 157 157 157 93 157 157 93 157 157 157 157 157 93 157 157 157 157 157 157 157 157 157 157 157 157 157 157 157 156 145 146 73 72 73 73 9 75 157 157 157 157 157 157 157 157 157 157 157 157 157 157 157 157 157 157 157 157 157 157 157 157 157 157 157 157 93 157 157 157 157 157 157 157 93 93 93 93 93 93 93 157 85 292 292 365 156 93 157 157 157 157 157 157 157 157 157 157 157 157 157 157 157 157 157 157 157 157 157 157 157 157 157 157 157 157 157 157 157 157 157 157 157 157 157 157 157 157 157 157 154 147 146 155 148 73 145 155 157 157 157 157 157 157 157 157 157 157 157 157 157 157 157 157 157 157 157 157 157 157 157 157 157 157 157 157 93 157 93 93 157 93 93 93 157 157 157 157 157 157 157 84 293 438 511 438 365 157 85 157 157 157 157 157 157 157 157 157 157 157 157 157 157 157 157 157 157 157 157 157 157 157 157 157 157 157 157 157 157 157 157 157 157 157 157 157 157 156 155 145 0 144 145 8 146 83 9 72 157 157 157 157 157 157 157 157 157 157 157 157 157 157 157 157 157 157 157 157 157 157 157 157 157 157 157 157 157 157 157 157 93 157 157 157 157 157 157 157 157 93 157 502 510 511 439 511 511 511 366 85 157 157 229 221 157 157 157 157 157 157 157 157 157 157 157 157 157 157 157 157 157 157 157 157 157 157 157 157 157 157 157 157 157 157 157 157 157 83 146 147 158 145 74 82 157 157 157 148 157 157 157 157 157 157 157 157 157 157 157 157 157 157 157 157 157 157 157 157 157 157 157 157 157 157 157 157 157 157 157 157 157 157 157 157 157 157 157 157 93 157 510 438 438 438 438 438 438 438 438 438 157 229 229 229 229 157 157 157 157 157 157 157 157 157 157 157 157 157 157 157 157 157 157 157 157 157 157 157 157 157 157 157 157 157 157 157 157 157 147 145 147 155 72 72 157 157 157 157 157 157 157 157 157 157 157 157 157 157 157 157 157 157 157 157 157 157 157 157 157 157 157 157 157 157 157 157 157 157 157 157 157 157 157 157 157 157 157 157 157 510 438 438 438 438 438 438 438 438 438 438 374 229 229 229 229 157 157 221 229 221 157 157 157 157 157 157 157 157 157 157 157 157 157 157 157 157 157 157 157 157 157 157 157 157 157 157 148 82 73 146 73 73 74 73 73 147 155 156 157 157 157 157 157 157 157 157 157 157 157 157 157 157 157 157 157 157 157 157 157 157 157 157 157 157 157 157 157 157 157 157 157 157 221 157 157 157 157 157 366 438 438 438 438 438 438 438 438 438 438 438 438 293 229 229 229 229 229 229 229 229 229 229 157 157 157 221 229 157 229 229 157 157 157 157 157 157 157 157 157 157 157 157 157 157 157 157 157 145 148 156 83 72 157 82 147 0 73 72 157 157 157 157 157 157 157 157 157 157 157 157 157 157 157 157 157 157 157 157 157 157 157 157 157 157 157 157 157 157 157 157 157 229 229 229 229 221 221 229 438 438 438 365 438 365 365 365 365 365 438 438 438 366 294 293 294 293 293 293 229 229 229 229 229 229 229 229 229 229 229 157 157 157 157 157 157 157 157 157 157 157 157 157 157 157 157 157 155 156 73 146 73 156 9 148 72 81 82 147 156 156 157 157 157 157 157 157 157 157 157 157 157 157 157 157 157 157 157 157 157 157 157 157 157 157 157 157 157 157 157 221 229 229 229 229 229 229 229 301 438 292 219 292 292 365 365 365 365 293 292 219 365 438 294 302 301 301 302 294 293 293 294 293 229 229 229 229 229 229 229 229 157 229 229 157 157 157 157 157 157 157 157 157 157 157 157 157 146 72 147 147 1 83 158 83 156 73 74 156 147 156 157 157 157 157 157 157 157 157 157 157 157 157 157 157 157 157 157 157 157 157 157 157 157 157 157 157 157 157 157 229 229 229 229 229 229 229 229 365 219 292 292 147 146 146 146 146 146 155 219 292 292 292 366 302 302 302 302 302 302 302 302 294 293 293 293 229 229 229 229 229 229 229 229 229 221 157 157 157 157 157 157 157 157 157 157 157 148 72 73 148 84 83 158 157 156 82 147 146 157 157 157 157 157 157 157 157 157 157 157 157 157 157 157 157 157 157 157 157 157 157 157 157 157 157 157 157 157 221 229 229 229 229 229 229 229 229 302 219 82 146 219 365 146 511 219 365 438 219 301 155 73 219 292 302 302 302 302 302 302 302 302 302 302 302 302 294 294 229 293 294 229 229 229 229 229 221 229 157 221 221 157 157 157 157 157 157 155 157 74 146 147 0 155 147 157 74 74 220 157 157 157 157 156 157 157 157 157 157 157 157 157 157 157 157 157 157 157 157 157 157 157 157 157 157 157 157 157 157 157 157 165 229 229 229 229 230 155 146 219 438 146 438 74 438 292 292 365 146 511 73 511 74 73 302 366 366 366 366 302 302 302 302 302 302 302 302 302 293 294 293 294 294 293 293 229 230 229 229 229 221 157 157 157 157 157 157 0 147 147 156 73 73 156 156 156 84 157 155 157 156 157 147 83 157 157 157 157 157 157 157 157 157 157 157 157 157 157 157 157 157 157 157 157 157 157 157 157 157 157 157 157 157 157 229 229 229 73 365 219 365 438 365 365 438 365 365 438 365 365 365 365 292 228 82 366 302 302 302 302 302 302 302 302 302 302 302 302 302 302 302 294 294 294 293 229 229 229 229 229 229 229 157 157 157 157 157 147 73 158 74 156 74 83 156 156 147 218 145 154 154 155 146 157 157 157 157 157 157 157 157 157 157 157 157 157 157 157 157 157 157 157 157 157 157 157 157 157 157 157 157 157 157 157 157 157 157 356 292 292 147 146 211 219 146 146 147 146 146 219 219 155 292 220 219 366 302 302 302 302 302 302 302 302 302 302 302 302 302 302 302 294 293 294 293 229 229 229 229 229 229 229 229 229 221 157 157 157 156 147 73 82 84 220 144 218 73 80 81 146 157 72 80 154 157 157 157 157 157 157 157 157 157 157 157 157 157 157 157 157 157 157 157 157 157 157 157 157 157 157 157 157 157 157 157 157 219 219 146 155 220 292 366 365 366 365 365 366 365 365 292 155 82 146 219 293 302 302 302 302 302 302 302 302 302 302 302 302 294 293 293 229 229 229 229 229 229 229 229 229 229 229 229 221 221 229 221 221 165 156 83 221 146 145 155 145 145 145 153 146 145 218 146 145 157 157 157 157 157 157 157 157 157 157 157 157 157 157 157 157 157 157 157 157 157 157 157 157 157 157 157 157 157 157 157 156 146 155 301 292 219 292 73 73 219 146 146 219 73 146 292 292 292 220 147 146 302 294 230 293 294 302 294 293 294 302 302 293 230 230 294 294 294 294 229 229 229 229 229 229 229 229 229 221 229 229 229 157 221 229 230 155 145 146 146 146 145 153 80 145 145 144 155 158 157 157 157 157 157 157 157 157 157 157 157 157 157 157 157 157 157 157 157 157 157 157 157 157 157 157 157 157 157 157 157 218 220 219 73 219 9 438 73 82 438 511 511 365 82 146 292 0 219 146 219 146 155 294 230 230 229 229 229 229 229 229 229 229 229 229 229 229 229 229 229 229 229 230 229 229 229 229 229 229 229 229 229 229 229 157 220 155 145 146 154 146 154 153 145 145 80 154 219 221 157 157 157 157 157 157 157 157 157 157 157 157 157 157 157 157 157 157 157 157 157 157 157 157 157 157 157 157 165 157 166 146 73 219 73 365 74 438 147 219 438 365 365 365 155 220 301 73 438 0 219 74 155 294 294 230 230 230 229 229 229 229 229 229 229 229 230 229 229 229 229 229 230 229 229 229 229 229 229 229 229 229 229 165 157 229 218 145 154 145 153 153 145 145 81 145 145 145 72 144 145 220 146 220 156 157 157 157 157 157 157 157 157 157 157 157 157 157 157 157 157 157 157 157 165 157 157 157 157 157 166 147 146 438 82 438 292 366 438 292 438 365 438 438 292 438 365 219 438 73 365 73 229 294 294 294 230 293 302 302 302 230 230 229 229 229 229 229 230 229 229 230 230 229 229 229 229 229 229 229 229 166 230 293 220 292 145 72 145 217 145 80 153 145 145 145 81 80 145 153 145 144 80 144 146 220 158 157 157 157 229 157 165 165 165 165 165 157 165 165 165 165 165 165 165 165 165 165 165 165 166 156 292 365 292 438 292 365 438 0 511 438 438 438 0 511 219 438 438 82 365 292 294 294 294 294 294 230 230 230 230 294 294 294 230 230 230 230 230 229 229 229 229 229 229 229 230 229 230 229 228 220 292 219 438 366 365 292 154 219 146 153 145 217 145 145 80 81 72 81 144 144 217 144 145 144 228 229 230 157 157 165 165 157 165 165 157 165 165 165 165 165 165 165 165 165 165 165 165 165 165 229 292 365 438 437 365 365 438 73 438 365 438 365 146 438 365 438 438 292 365 365 229 294 294 294 230 230 230 230 294 229 230 230 230 229 229 229 229 229 229 229 230 166 230 230 228 220 292 292 365 365 365 365 301 218 145 72 145 145 72 72 144 80 145 81 81 72 73 80 145 153 72 80 80 81 291 365 292 292 220 293 229 157 157 166 165 165 229 165 165 165 165 165 165 165 165 165 165 229 165 366 292 365 438 365 438 365 438 73 438 365 437 365 146 438 365 438 438 293 365 365 229 294 302 294 294 294 294 294 229 230 229 229 230 229 230 229 230 166 230 230 229 228 292 292 365 365 292 292 301 365 365 146 145 145 145 145 145 153 144 144 72 72 145 80 144 145 145 145 0 72 8 81 8 80 144 219 219 227 292 218 291 283 219 229 230 166 165 165 165 229 229 165 165 165 229 229 229 229 229 374 292 365 438 365 438 437 511 219 292 292 292 219 292 511 365 438 438 365 365 365 301 294 294 294 294 230 230 230 230 230 229 229 230 230 230 230 229 228 292 292 365 365 292 219 219 292 365 438 438 438 365 219 219 136 144 153 145 80 145 80 145 145 72 72 72 145 72 72 72 0 0 81 80 145 80 217 291 226 145 145 145 219 218 291 218 291 228 229 230 165 166 165 166 230 230 229 230 229 229 365 292 438 365 365 365 365 292 292 438 365 365 438 292 292 365 292 365 365 374 365 366 230 230 230 230 230 230 230 230 230 230 230 229 220 292 292 293 292 292 292 219 438 439 438 511 374 293 219 146 73 73 73 219 146 145 145 145 145 145 153 72 72 145 145 81 0 73 145 8 72 72 72 81 144 145 145 80 145 145 218 146 145 227 219 80 292 365 364 365 365 292 293 229 156 229 230 166 230 292 437 365 219 292 438 438 438 511 510 438 438 438 438 438 511 438 438 365 219 228 365 365 365 302 302 230 230 293 301 229 292 292 356 365 365 292 219 365 438 438 438 438 365 292 219 146 74 74 73 73 82 146 146 145 153 153 154 81 145 145 145 145 153 80 72 145 81 81 145 72 0 72 72 0 81 80 80 145 81 145 145 145 145 145 145 153 218 292 365 219 292 292 365 364 365 219 219 220 301 365 365 438 438 293 219 146 219 219 292 438 438 438 438 292 219 219 146 219 365 438 365 365 365 301 293 292 292 365 292 292 292 292 292 438 365 438 511 438 293 219 147 82 81 81 145 82 82 147 147 155 220 301 146 145 145 145 145 145 145 153 80 72 72 73 153 145 72 81 81 154 145 217 153 153 72 145 145 153 145 145 145 145 81 145 80 145 218 218 365 438 438 365 365 292 292 292 365 365 292 292 365 219 219 365 293 374 438 438 365 292 292 292 292 365 365 511 301 292 293 146 219 365 292 365 365 365 292 292 292 365 438 438 439 366 292 219 146 73 146 146 82 145 145 81 145 219 219 147 438 438 438 438 365 81 145 219 218 219 145 145 144 72 72 72 72 145 145 218 80 81 153 145 72 145 72 0 72 144 145 145 145 153 145 145 145 145 145 145 145 145 219 292 365 438 510 438 365 292 228 292 292 365 365 219 292 511 146 365 365 438 438 438 438 365 365 219 511 292 219 365 365 292 365 292 365 438 438 511 438 365 292 219 73 146 146 146 146 155 219 220 154 144 81 145 145 80 218 0 438 438 438 292 219 365 145 292 365 291 145 72 145 72 8 72 145 153 145 80 8 145 80 145 80 72 81 8 8 72 145 72 145 145 145 218 145 145 146 145 145 219 219 219 219 146 219 292 292 365 511 438 438 292 292 365 292 292 292 365 292 365 365 365 365 365 365 292 292 365 365 292 292 511 438 438 365 292 292 219 146 146 146 155 219 219 219 228 219 293 438 154 80 72 145 72 145 72 145 219 365 438 366 218 218 292 218 145 218 218 145 153 153 145 73 81 145 81 146 146 153 217 145 291 72 81 8 73 72 73 72 145 145 145 146 219 146 145 145 145 218 219 219 220 219 220 219 219 146 146 146 219 292 365 438 511 438 511 438 438 438 365 365 365 365 365 438 438 438 447 511 438 365 292 219 219 219 219 219 219 219 219 228 220 292 511 366 9 219 80 72 145 72 145 81 291 154 146 81 145 81 438 438 218 219 145 146 218 146 218 81 72 145 73 146 73 72 145 153 145 153 80 154 81 145 145 145 81 145 81 72 80 217 145 218 219 146 145 145 218 292 145 146 146 438 292 219 292 219 220 220 220 219 146 146 218 291 219 147 219 146 219 218 219 219 219 219 146 146 219 146 146 146 146 219 292 228 292 220 219 365 511 146 219 73 511 511 219 291 72 80 81 73 145 154 81 292 292 145 81 145 153 292 291 218 218 218 219 146 219 364 73 81 219 146 73 145 153 145 153 73 219 72 73 81 80 72 81 145 72 72 72 72 145 219 153 145 73 81 145 145 145 292 365 438 228 146 73 511 292 219 219 292 228 219 219 146 155 292 292 293 365 219 219 292 292 219 219 146 146 146 219 219 365 219 146 365 511 74 220 292 438 438 438 293 438 365 292 218 72 145 73 146 73 146 146 154 146 73 72 145 144 145 145 153 218 219 219 145 219 146 146 73 146 146 145 145 145 145 145 73 146 73 72 145 145 80 145 8 146 145 72 145 145 145 145 145 145 145 145 145 145 218 292 438 365 438 365 438 292 219 228 511 146 146 364 292 365 146 73 292 365 146 146 292 292 73 146 292 292 437 146 146 511 301 365 301 439 365 438 365 511 292 292 365 438 438 365 72 146 219 81 72 8 81 145 80 219 154 73 154 146 145 218 154 153 218 292 219 219 292 73 81 146 291 146 80 153 145 219 146 72 73 81 145 72 72 8 146 81 153 145 153 145 153 145 81 80 80 154 291 145 145 438 438 365 219 292 438 365 365 365 439 292 228 511 511 365 292 137 219 438 73 73 438 219 137 291 365 511 511 365 365 511 365 365 365 439 365 219 438 438 511 0 146 438 438 365 8 0 219 146 144 80 72 81 81 154 145 72 146 218 146 145 145 145 218 292 365 511 365 438 72 146 219 365 73 72 146 146 8 145 72 145 81 80 8 145 145 81 80 145 80 145 145 81 72 73 145 219 153 81 81 218 503 219 0 438 438 365 146 438 438 365 292 438 502 438 292 73 219 438 146 146 438 292 73 292 438 510 438 292 364 511 438 146 365 438 438 0 292 438 438 219 73 438 438 365 8 8 218 146 218 145 72 145 145 145 146 145 146 219 364 292 146 145 145 0 292 146 219 292 146 219 72 219 145 0 72 73 219 73 145 146 218 145 73 73 145 145 145 72 72 145 153 145 72 72 73 145 145 80 80 437 438 219 73 511 438 219 73 438 511 73 219 510 438 438 292 146 292 438 218 218 438 365 146 292 438 438 511 291 218 511 511 73 228 438 511 81 292 438 510 219 0 511 438 438 8 0 219 292 145 145 145 145 154 81 292 219 292 292 210 146 219 218 227 219 145 219 72 292 146 292 146 145 73 145 146 73 356 146 73 73 8 72 72 81 81 81 72 73 73 154 81 81 145 219 292 145 154 72 219 438 438 146 0 511 438 219 146 511 511 73 292 438 438 438 292 146 219 511 73 73 438 292 146 292 438 438 510 365 146 511 511 146 219 438 511 73 146 439 438 365 74 438 365 364 73 145 145 145 145 145 81 81 145 73 145 145 72 154 146 365 218 145 218 146 72 283 146 291 146 81 146 145 73 145 81 72 145 146 146 145 145 72 145 145 73 72 72 72 72 8 145 145 154 145 73 81 154 292 437 438 438 292 292 510 438 219 146 502 511 0 438 438 438 438 292 147 219 511 73 9 438 292 146 292 438 438 510 438 73 511 510 219 219 438 438 365 438 438 438 365 438 438 438 145 81 72 145 145 72 81 145 73 72 145 146 72 73 154 154 81 146 291 145 145 72 291 292 219 219 145 81 145 81 146 218 73 146 146 145 145 145 72 81 145 81 81 145 80 81 81 145 218 81 80 145 292 365 146 219 365 438 292 292 438 438 438 365 511 438 292 438 438 438 438 292 293 219 511 9 1 438 292 293 228 438 438 438 438 365 438 510 365 502 438 438 292 292 438 365 219 219 292 511 219 73 73 219 219 219 145 72 145 145 81 154 145 72 81 146 146 292 291 146 146 146 365 365 438 292 73 145 145 219 73 154 0 146 146 292 154 154 81 154 145 219 218 145 72 146 218 218 219 0 81 218 365 365 146 219 365 438 219 146 292 511 219 219 292 438 292 292 438 438 438 301 146 365 438 292 292 438 365 82 356 438 438 502 364 364 438 365 219 219 511 365 146 219 438 438 292 0 511 511 365 365 72 145 72 219 292 73 146 73 145 292 219 0 219 365 374 365 218 365 365 73 219 73 72 8 146 218 219 146 219 73 219 146 365 292 227 146 73 73 145 145 145 72 73 81 146 81 154 0 219 292 8 356 365 438 438 438 155 219 438 438 219 219 365 438 219 291 438 438 438 365 219 292 438 219 218 511 365 146 429 438 438 438 292 218 511 438 219 219 438 438 292 219 438 438 511 0 292 219 438 511 73 219 219 365 365 0 81 292 0 219 73 218 365 365 365 365 438 365 154 146 365 437 365 292 146 365 292 219 292 72 146 438 365 365 438 437 438 365 291 146 73 72 218 365 438 510 292 73 438 292 292 438 219 438 438 438 146 292 438 438 219 292 438 438 146 438 511 510 365 292 438 292 510 145 73 511 291 438 365 365 438 511 511 73 511 438 292 219 438 438 292 146 438 438 511 73 365 293 438 365 292 438 438 218 365 292 365 146 73 146 219 219 219 292 219 219 146 73 219 146 365 437 438 438 292 365 365 72 81 145 292 219 219 219 219 147 292 146 219 219 146 219 292 219 146 365 511 292 437 438 438 365 438 438 438 438 292 365 438 438 292 365 438 365 219 365 365 365 511 438 438 365 438 291 219 510 365 438 438 438 365 365 365 219 365 438 365 292 438 438 438 365 438 438 438 438 438 365 437 219 365 293 219 73 146 219 146 219 219 73 219 219 292 292 365 438 365 438 292 292 73 292 292 292 292 292 292 292 438 146 365 365 365 365 374 438 219 438 438 438 365 227 292 365 292 219 0 73 219 292 292 146 365 292 292 292 437 365 365 365 365 438 438 438 437 365 365 292 219 219 438 438 437 437 438 437 438 365 365 292 292 292 364 365 365 365 365 365 292 291 365 365 365 292 292 364 365 147 365 292 365 438 292 0 292 292 438 438 292 146 365 73 219 438 365 365 365 365 365 292 155 438 365 365 366 365 365 292 438 146 366 365 365 365 219 0 0 438 365 438 73 73 210 438 365 511 0 0 365 437 438 155 219 511 439 438 219 219 292 292 437 365 291 292 438 365 510 437 438 438 438 438 437 429 429 429 429 365 438 373 365 365 356 365 365 365 365 503 438 438 219 292 292 365 438 292 292 154 365 365 0 292 366 74 292 0 0 438 438 73 438 0 0 438 365 438 438 366 365 438 146 438 438 429 438 365 365 292 365 73 292 292 219 292 292 146 219 291 293 292 0 82 429 292 292 292 0 73 292 292 292 219 219 219 219 292 438 438 438 365 219 146 511 510 73 0 0 510 365 1 9 147 429 365 429 429 429 365 438 365 365 8 0 0 438 438 146 73 438 438 292 438 438 365 292 146 292 365 364 292 146 219 292 146 292 292 292 292 365 292 292 292 219 82 219 146 73 73 73 146 8 146 73 146 146 146 146 365 292 219 365 365 365 365 291 291 291 292 155 155 0 73 219 218 292 438 146 365 438 437 438 292 437 365 365 365 438 438 438 219 146 219 365 438 219 0 0 511 292 146 219 146 437 365 365 429 429 437 438 365 429 73 0 146 511 510 365 146 438 365 365 438 438 365 438 438 437 365 365 438 292 365 291 292 291 365 219 438 438 438 366 365 365 365 292 219 219 147 82 146 73 219 73 146 146 146 146 438 219 365 438 438 438 437 511 0 0 73 0 73 73 73 73 82 365 146 9 146 365 365 365 292 438 438 438 438 438 292 438 146 218 365 146 365 219 0 0 511 73 73 73 0 438 365 292 365 364 365 437 365 437 146 1 73 219 292 356 146 437 365 365 365 292 365 365 438 292 365 365 364 219 438 365 292 365 438 146 438 365 365 366 365 365 365 365 147 219 219 73 82 1 146 146 146 146 146 9 291 73 291 291 291 226 218 291 0 73 73 73 8 73 73 73 146 219 219 146 219 438 365 145 73 218 219 146 219 283 364 365 437 437 429 365 364 437 438 438 365 510 437 438 438 365 365 365 365 365 365 365 365 365 438 437 437 429 365 364 365 364 429 429 429 429 364 291 283 291 219 219 219 146 219 219 364 365 219 220 292 438 438 365 438 438 438 365 292 0 72 72 72 73 74 146 8 8 0 8 0 0 0 0 0 72 144 72 1 9 73 73 218 73 292 155 146 146 82 73 146 210 219 292 219 219 218 219 364 365 365 365 365 364 292 365 365 365 429 365 438 365 365 365 365 429 365 365 365 365 365 365 365 365 365 429 429 365 365 365 365 365 356 292 364 365 429 365 429 429 429 364 292 219 219 73 365 365 219 218 292 219 438 365 292 291 219 356 292 219 72 145 145 154 365 365 80 145 145 145 